<mxfile host="app.diagrams.net" modified="2020-12-22T09:35:09.546Z" agent="5.0 (Macintosh; Intel Mac OS X 10_15_6) AppleWebKit/605.1.15 (KHTML, like Gecko) Version/14.0.2 Safari/605.1.15" etag="7AY0MHGQt-MSaYzxnGo7" version="14.1.1" type="github">
  <diagram id="XatKo72ORTrm7SzTFqB9" name="第 1 页">
    <mxGraphModel dx="705" dy="620" grid="1" gridSize="10" guides="1" tooltips="1" connect="1" arrows="1" fold="1" page="1" pageScale="1" pageWidth="3300" pageHeight="2339" math="0" shadow="0">
      <root>
        <mxCell id="0" />
        <mxCell id="1" parent="0" />
        <mxCell id="SkbolYmxKsYoy9QkeFlS-3" style="edgeStyle=orthogonalEdgeStyle;rounded=0;orthogonalLoop=1;jettySize=auto;html=1;" edge="1" parent="1" source="SkbolYmxKsYoy9QkeFlS-1" target="SkbolYmxKsYoy9QkeFlS-4">
          <mxGeometry relative="1" as="geometry">
            <mxPoint x="160" y="180" as="targetPoint" />
          </mxGeometry>
        </mxCell>
        <mxCell id="SkbolYmxKsYoy9QkeFlS-1" value="master" style="rounded=0;whiteSpace=wrap;html=1;fillColor=#9AC7BF;" vertex="1" parent="1">
          <mxGeometry x="120" y="80" width="80" height="40" as="geometry" />
        </mxCell>
        <mxCell id="SkbolYmxKsYoy9QkeFlS-5" style="edgeStyle=orthogonalEdgeStyle;rounded=0;orthogonalLoop=1;jettySize=auto;html=1;exitX=0.5;exitY=1;exitDx=0;exitDy=0;" edge="1" parent="1" source="SkbolYmxKsYoy9QkeFlS-2">
          <mxGeometry relative="1" as="geometry">
            <mxPoint x="380" y="220" as="targetPoint" />
            <Array as="points">
              <mxPoint x="380" y="150" />
              <mxPoint x="380" y="150" />
            </Array>
          </mxGeometry>
        </mxCell>
        <mxCell id="SkbolYmxKsYoy9QkeFlS-2" value="salve" style="rounded=0;whiteSpace=wrap;html=1;fillColor=#D5E8D4;" vertex="1" parent="1">
          <mxGeometry x="340" y="80" width="80" height="40" as="geometry" />
        </mxCell>
        <mxCell id="SkbolYmxKsYoy9QkeFlS-9" value="" style="edgeStyle=orthogonalEdgeStyle;rounded=0;orthogonalLoop=1;jettySize=auto;html=1;" edge="1" parent="1" source="SkbolYmxKsYoy9QkeFlS-4" target="SkbolYmxKsYoy9QkeFlS-8">
          <mxGeometry relative="1" as="geometry" />
        </mxCell>
        <mxCell id="SkbolYmxKsYoy9QkeFlS-10" style="edgeStyle=orthogonalEdgeStyle;rounded=0;orthogonalLoop=1;jettySize=auto;html=1;exitX=0;exitY=0.5;exitDx=0;exitDy=0;entryX=0;entryY=0.5;entryDx=0;entryDy=0;" edge="1" parent="1" source="SkbolYmxKsYoy9QkeFlS-4" target="SkbolYmxKsYoy9QkeFlS-8">
          <mxGeometry relative="1" as="geometry" />
        </mxCell>
        <mxCell id="SkbolYmxKsYoy9QkeFlS-14" value="&lt;span style=&quot;font-size: 12px ; background-color: rgb(248 , 249 , 250)&quot;&gt;2. bgsave命令生生 rdb 二机制文件&lt;/span&gt;" style="edgeLabel;html=1;align=center;verticalAlign=middle;resizable=0;points=[];" vertex="1" connectable="0" parent="SkbolYmxKsYoy9QkeFlS-10">
          <mxGeometry x="-0.0857" y="1" relative="1" as="geometry">
            <mxPoint as="offset" />
          </mxGeometry>
        </mxCell>
        <mxCell id="SkbolYmxKsYoy9QkeFlS-4" value="" style="rounded=0;whiteSpace=wrap;html=1;fillColor=#e1d5e7;strokeColor=#9673a6;" vertex="1" parent="1">
          <mxGeometry x="150" y="140" width="20" height="50" as="geometry" />
        </mxCell>
        <mxCell id="SkbolYmxKsYoy9QkeFlS-6" value="" style="endArrow=classic;html=1;" edge="1" parent="1">
          <mxGeometry width="50" height="50" relative="1" as="geometry">
            <mxPoint x="380" y="150" as="sourcePoint" />
            <mxPoint x="170" y="150" as="targetPoint" />
          </mxGeometry>
        </mxCell>
        <mxCell id="SkbolYmxKsYoy9QkeFlS-7" value="1. sync" style="edgeLabel;html=1;align=center;verticalAlign=middle;resizable=0;points=[];" vertex="1" connectable="0" parent="SkbolYmxKsYoy9QkeFlS-6">
          <mxGeometry x="-0.0273" relative="1" as="geometry">
            <mxPoint as="offset" />
          </mxGeometry>
        </mxCell>
        <mxCell id="SkbolYmxKsYoy9QkeFlS-17" style="edgeStyle=orthogonalEdgeStyle;rounded=0;orthogonalLoop=1;jettySize=auto;html=1;exitX=1;exitY=0;exitDx=0;exitDy=0;entryX=0;entryY=0.5;entryDx=0;entryDy=0;dashed=1;dashPattern=1 1;" edge="1" parent="1" source="SkbolYmxKsYoy9QkeFlS-8" target="SkbolYmxKsYoy9QkeFlS-15">
          <mxGeometry relative="1" as="geometry" />
        </mxCell>
        <mxCell id="SkbolYmxKsYoy9QkeFlS-20" style="edgeStyle=orthogonalEdgeStyle;rounded=0;orthogonalLoop=1;jettySize=auto;html=1;exitX=1;exitY=1;exitDx=0;exitDy=0;entryX=0;entryY=0.5;entryDx=0;entryDy=0;dashed=1;dashPattern=1 1;" edge="1" parent="1" source="SkbolYmxKsYoy9QkeFlS-8" target="SkbolYmxKsYoy9QkeFlS-16">
          <mxGeometry relative="1" as="geometry" />
        </mxCell>
        <mxCell id="SkbolYmxKsYoy9QkeFlS-25" style="edgeStyle=orthogonalEdgeStyle;rounded=0;orthogonalLoop=1;jettySize=auto;html=1;exitX=0.5;exitY=1;exitDx=0;exitDy=0;" edge="1" parent="1" source="SkbolYmxKsYoy9QkeFlS-8">
          <mxGeometry relative="1" as="geometry">
            <mxPoint x="160" y="350" as="targetPoint" />
          </mxGeometry>
        </mxCell>
        <mxCell id="SkbolYmxKsYoy9QkeFlS-8" value="" style="rounded=0;whiteSpace=wrap;html=1;fillColor=#e1d5e7;strokeColor=#9673a6;" vertex="1" parent="1">
          <mxGeometry x="150" y="240" width="20" height="50" as="geometry" />
        </mxCell>
        <mxCell id="SkbolYmxKsYoy9QkeFlS-15" value="rdb文件" style="rounded=0;whiteSpace=wrap;html=1;fillColor=#E6E6E6;" vertex="1" parent="1">
          <mxGeometry x="200" y="220" width="70" height="40" as="geometry" />
        </mxCell>
        <mxCell id="SkbolYmxKsYoy9QkeFlS-22" style="edgeStyle=orthogonalEdgeStyle;rounded=0;orthogonalLoop=1;jettySize=auto;html=1;exitX=1;exitY=0.5;exitDx=0;exitDy=0;dashed=1;dashPattern=1 1;" edge="1" parent="1" source="SkbolYmxKsYoy9QkeFlS-15">
          <mxGeometry relative="1" as="geometry">
            <mxPoint x="370" y="240" as="targetPoint" />
          </mxGeometry>
        </mxCell>
        <mxCell id="SkbolYmxKsYoy9QkeFlS-23" value="3. 发送备份文件" style="edgeLabel;html=1;align=center;verticalAlign=middle;resizable=0;points=[];" vertex="1" connectable="0" parent="SkbolYmxKsYoy9QkeFlS-22">
          <mxGeometry x="-0.24" y="-2" relative="1" as="geometry">
            <mxPoint as="offset" />
          </mxGeometry>
        </mxCell>
        <mxCell id="SkbolYmxKsYoy9QkeFlS-16" value="缓存备份时新产生命令" style="rounded=0;whiteSpace=wrap;html=1;fillColor=#E6E6E6;" vertex="1" parent="1">
          <mxGeometry x="200" y="270" width="70" height="40" as="geometry" />
        </mxCell>
        <mxCell id="SkbolYmxKsYoy9QkeFlS-29" style="edgeStyle=orthogonalEdgeStyle;rounded=0;orthogonalLoop=1;jettySize=auto;html=1;exitX=0.5;exitY=1;exitDx=0;exitDy=0;entryX=0.5;entryY=0;entryDx=0;entryDy=0;" edge="1" parent="1" source="SkbolYmxKsYoy9QkeFlS-21" target="SkbolYmxKsYoy9QkeFlS-28">
          <mxGeometry relative="1" as="geometry" />
        </mxCell>
        <mxCell id="SkbolYmxKsYoy9QkeFlS-21" value="" style="rounded=0;whiteSpace=wrap;html=1;fillColor=#e1d5e7;strokeColor=#9673a6;" vertex="1" parent="1">
          <mxGeometry x="370" y="220" width="20" height="50" as="geometry" />
        </mxCell>
        <mxCell id="SkbolYmxKsYoy9QkeFlS-30" style="edgeStyle=orthogonalEdgeStyle;rounded=0;orthogonalLoop=1;jettySize=auto;html=1;exitX=1;exitY=0.5;exitDx=0;exitDy=0;entryX=0;entryY=0.5;entryDx=0;entryDy=0;" edge="1" parent="1" source="SkbolYmxKsYoy9QkeFlS-26" target="SkbolYmxKsYoy9QkeFlS-28">
          <mxGeometry relative="1" as="geometry" />
        </mxCell>
        <mxCell id="SkbolYmxKsYoy9QkeFlS-32" value="4. 发送缓存命令" style="edgeLabel;html=1;align=center;verticalAlign=middle;resizable=0;points=[];" vertex="1" connectable="0" parent="SkbolYmxKsYoy9QkeFlS-30">
          <mxGeometry x="0.03" y="-2" relative="1" as="geometry">
            <mxPoint as="offset" />
          </mxGeometry>
        </mxCell>
        <mxCell id="SkbolYmxKsYoy9QkeFlS-26" value="" style="rounded=0;whiteSpace=wrap;html=1;fillColor=#e1d5e7;strokeColor=#9673a6;" vertex="1" parent="1">
          <mxGeometry x="150" y="350" width="20" height="50" as="geometry" />
        </mxCell>
        <mxCell id="SkbolYmxKsYoy9QkeFlS-28" value="" style="rounded=0;whiteSpace=wrap;html=1;fillColor=#e1d5e7;strokeColor=#9673a6;" vertex="1" parent="1">
          <mxGeometry x="370" y="350" width="20" height="50" as="geometry" />
        </mxCell>
      </root>
    </mxGraphModel>
  </diagram>
</mxfile>
